<svg xmlns="http://www.w3.org/2000/svg" viewBox="0 0 1120 690" role="img" aria-labelledby="title desc"><title id="title">Reference comparison counts</title><desc id="desc">Five paired descriptive comparisons for each of four experiments.</desc><rect x="0" y="0" width="1120" height="690" fill="#121923" rx="0"/><text x="52" y="55" fill="#e8edf3" font-size="26" font-family="Arial, Helvetica, sans-serif" text-anchor="start" font-weight="700">Research question 1: how often did an agent beat each reference?</text><text x="52" y="91" fill="#b7c3cf" font-size="17" font-family="Arial, Helvetica, sans-serif" text-anchor="start" font-weight="400">Each colored square is one of five training starts on the same final TEST path.</text><text x="52" y="187" fill="#e8edf3" font-size="17" font-family="Arial, Helvetica, sans-serif" text-anchor="start" font-weight="400">Positive return</text><text x="460" y="157" fill="#8fb6ff" font-size="16" font-family="Arial, Helvetica, sans-serif" text-anchor="start" font-weight="700">E1</text><rect x="460" y="170" width="15" height="18" fill="#8fb6ff" rx="2"/><rect x="479" y="170" width="15" height="18" fill="#8fb6ff" rx="2"/><rect x="498" y="170" width="15" height="18" fill="#526171" rx="2"/><rect x="517" y="170" width="15" height="18" fill="#526171" rx="2"/><rect x="536" y="170" width="15" height="18" fill="#526171" rx="2"/><text x="558" y="186" fill="#8fb6ff" font-size="15" font-family="Arial, Helvetica, sans-serif" text-anchor="start" font-weight="400">2/5</text><text x="610" y="157" fill="#65dab0" font-size="16" font-family="Arial, Helvetica, sans-serif" text-anchor="start" font-weight="700">E2</text><rect x="610" y="170" width="15" height="18" fill="#65dab0" rx="2"/><rect x="629" y="170" width="15" height="18" fill="#65dab0" rx="2"/><rect x="648" y="170" width="15" height="18" fill="#65dab0" rx="2"/><rect x="667" y="170" width="15" height="18" fill="#65dab0" rx="2"/><rect x="686" y="170" width="15" height="18" fill="#65dab0" rx="2"/><text x="708" y="186" fill="#65dab0" font-size="15" font-family="Arial, Helvetica, sans-serif" text-anchor="start" font-weight="400">5/5</text><text x="760" y="157" fill="#d697e8" font-size="16" font-family="Arial, Helvetica, sans-serif" text-anchor="start" font-weight="700">E3</text><rect x="760" y="170" width="15" height="18" fill="#d697e8" rx="2"/><rect x="779" y="170" width="15" height="18" fill="#526171" rx="2"/><rect x="798" y="170" width="15" height="18" fill="#526171" rx="2"/><rect x="817" y="170" width="15" height="18" fill="#526171" rx="2"/><rect x="836" y="170" width="15" height="18" fill="#526171" rx="2"/><text x="858" y="186" fill="#d697e8" font-size="15" font-family="Arial, Helvetica, sans-serif" text-anchor="start" font-weight="400">1/5</text><text x="910" y="157" fill="#ffbd70" font-size="16" font-family="Arial, Helvetica, sans-serif" text-anchor="start" font-weight="700">E4</text><rect x="910" y="170" width="15" height="18" fill="#ffbd70" rx="2"/><rect x="929" y="170" width="15" height="18" fill="#ffbd70" rx="2"/><rect x="948" y="170" width="15" height="18" fill="#ffbd70" rx="2"/><rect x="967" y="170" width="15" height="18" fill="#ffbd70" rx="2"/><rect x="986" y="170" width="15" height="18" fill="#ffbd70" rx="2"/><text x="1008" y="186" fill="#ffbd70" font-size="15" font-family="Arial, Helvetica, sans-serif" text-anchor="start" font-weight="400">5/5</text><text x="52" y="282" fill="#e8edf3" font-size="17" font-family="Arial, Helvetica, sans-serif" text-anchor="start" font-weight="400">Return above buy &amp; hold</text><text x="460" y="252" fill="#8fb6ff" font-size="16" font-family="Arial, Helvetica, sans-serif" text-anchor="start" font-weight="700">E1</text><rect x="460" y="265" width="15" height="18" fill="#526171" rx="2"/><rect x="479" y="265" width="15" height="18" fill="#526171" rx="2"/><rect x="498" y="265" width="15" height="18" fill="#526171" rx="2"/><rect x="517" y="265" width="15" height="18" fill="#526171" rx="2"/><rect x="536" y="265" width="15" height="18" fill="#526171" rx="2"/><text x="558" y="281" fill="#8fb6ff" font-size="15" font-family="Arial, Helvetica, sans-serif" text-anchor="start" font-weight="400">0/5</text><text x="610" y="252" fill="#65dab0" font-size="16" font-family="Arial, Helvetica, sans-serif" text-anchor="start" font-weight="700">E2</text><rect x="610" y="265" width="15" height="18" fill="#65dab0" rx="2"/><rect x="629" y="265" width="15" height="18" fill="#65dab0" rx="2"/><rect x="648" y="265" width="15" height="18" fill="#526171" rx="2"/><rect x="667" y="265" width="15" height="18" fill="#526171" rx="2"/><rect x="686" y="265" width="15" height="18" fill="#526171" rx="2"/><text x="708" y="281" fill="#65dab0" font-size="15" font-family="Arial, Helvetica, sans-serif" text-anchor="start" font-weight="400">2/5</text><text x="760" y="252" fill="#d697e8" font-size="16" font-family="Arial, Helvetica, sans-serif" text-anchor="start" font-weight="700">E3</text><rect x="760" y="265" width="15" height="18" fill="#526171" rx="2"/><rect x="779" y="265" width="15" height="18" fill="#526171" rx="2"/><rect x="798" y="265" width="15" height="18" fill="#526171" rx="2"/><rect x="817" y="265" width="15" height="18" fill="#526171" rx="2"/><rect x="836" y="265" width="15" height="18" fill="#526171" rx="2"/><text x="858" y="281" fill="#d697e8" font-size="15" font-family="Arial, Helvetica, sans-serif" text-anchor="start" font-weight="400">0/5</text><text x="910" y="252" fill="#ffbd70" font-size="16" font-family="Arial, Helvetica, sans-serif" text-anchor="start" font-weight="700">E4</text><rect x="910" y="265" width="15" height="18" fill="#ffbd70" rx="2"/><rect x="929" y="265" width="15" height="18" fill="#ffbd70" rx="2"/><rect x="948" y="265" width="15" height="18" fill="#ffbd70" rx="2"/><rect x="967" y="265" width="15" height="18" fill="#ffbd70" rx="2"/><rect x="986" y="265" width="15" height="18" fill="#526171" rx="2"/><text x="1008" y="281" fill="#ffbd70" font-size="15" font-family="Arial, Helvetica, sans-serif" text-anchor="start" font-weight="400">4/5</text><text x="52" y="377" fill="#e8edf3" font-size="17" font-family="Arial, Helvetica, sans-serif" text-anchor="start" font-weight="400">Sharpe above buy &amp; hold</text><text x="460" y="347" fill="#8fb6ff" font-size="16" font-family="Arial, Helvetica, sans-serif" text-anchor="start" font-weight="700">E1</text><rect x="460" y="360" width="15" height="18" fill="#526171" rx="2"/><rect x="479" y="360" width="15" height="18" fill="#526171" rx="2"/><rect x="498" y="360" width="15" height="18" fill="#526171" rx="2"/><rect x="517" y="360" width="15" height="18" fill="#526171" rx="2"/><rect x="536" y="360" width="15" height="18" fill="#526171" rx="2"/><text x="558" y="376" fill="#8fb6ff" font-size="15" font-family="Arial, Helvetica, sans-serif" text-anchor="start" font-weight="400">0/5</text><text x="610" y="347" fill="#65dab0" font-size="16" font-family="Arial, Helvetica, sans-serif" text-anchor="start" font-weight="700">E2</text><rect x="610" y="360" width="15" height="18" fill="#65dab0" rx="2"/><rect x="629" y="360" width="15" height="18" fill="#65dab0" rx="2"/><rect x="648" y="360" width="15" height="18" fill="#526171" rx="2"/><rect x="667" y="360" width="15" height="18" fill="#526171" rx="2"/><rect x="686" y="360" width="15" height="18" fill="#526171" rx="2"/><text x="708" y="376" fill="#65dab0" font-size="15" font-family="Arial, Helvetica, sans-serif" text-anchor="start" font-weight="400">2/5</text><text x="760" y="347" fill="#d697e8" font-size="16" font-family="Arial, Helvetica, sans-serif" text-anchor="start" font-weight="700">E3</text><rect x="760" y="360" width="15" height="18" fill="#526171" rx="2"/><rect x="779" y="360" width="15" height="18" fill="#526171" rx="2"/><rect x="798" y="360" width="15" height="18" fill="#526171" rx="2"/><rect x="817" y="360" width="15" height="18" fill="#526171" rx="2"/><rect x="836" y="360" width="15" height="18" fill="#526171" rx="2"/><text x="858" y="376" fill="#d697e8" font-size="15" font-family="Arial, Helvetica, sans-serif" text-anchor="start" font-weight="400">0/5</text><text x="910" y="347" fill="#ffbd70" font-size="16" font-family="Arial, Helvetica, sans-serif" text-anchor="start" font-weight="700">E4</text><rect x="910" y="360" width="15" height="18" fill="#ffbd70" rx="2"/><rect x="929" y="360" width="15" height="18" fill="#ffbd70" rx="2"/><rect x="948" y="360" width="15" height="18" fill="#ffbd70" rx="2"/><rect x="967" y="360" width="15" height="18" fill="#ffbd70" rx="2"/><rect x="986" y="360" width="15" height="18" fill="#526171" rx="2"/><text x="1008" y="376" fill="#ffbd70" font-size="15" font-family="Arial, Helvetica, sans-serif" text-anchor="start" font-weight="400">4/5</text><text x="52" y="472" fill="#e8edf3" font-size="17" font-family="Arial, Helvetica, sans-serif" text-anchor="start" font-weight="400">Shallower drawdown</text><text x="460" y="442" fill="#8fb6ff" font-size="16" font-family="Arial, Helvetica, sans-serif" text-anchor="start" font-weight="700">E1</text><rect x="460" y="455" width="15" height="18" fill="#8fb6ff" rx="2"/><rect x="479" y="455" width="15" height="18" fill="#8fb6ff" rx="2"/><rect x="498" y="455" width="15" height="18" fill="#8fb6ff" rx="2"/><rect x="517" y="455" width="15" height="18" fill="#8fb6ff" rx="2"/><rect x="536" y="455" width="15" height="18" fill="#8fb6ff" rx="2"/><text x="558" y="471" fill="#8fb6ff" font-size="15" font-family="Arial, Helvetica, sans-serif" text-anchor="start" font-weight="400">5/5</text><text x="610" y="442" fill="#65dab0" font-size="16" font-family="Arial, Helvetica, sans-serif" text-anchor="start" font-weight="700">E2</text><rect x="610" y="455" width="15" height="18" fill="#65dab0" rx="2"/><rect x="629" y="455" width="15" height="18" fill="#65dab0" rx="2"/><rect x="648" y="455" width="15" height="18" fill="#65dab0" rx="2"/><rect x="667" y="455" width="15" height="18" fill="#65dab0" rx="2"/><rect x="686" y="455" width="15" height="18" fill="#65dab0" rx="2"/><text x="708" y="471" fill="#65dab0" font-size="15" font-family="Arial, Helvetica, sans-serif" text-anchor="start" font-weight="400">5/5</text><text x="760" y="442" fill="#d697e8" font-size="16" font-family="Arial, Helvetica, sans-serif" text-anchor="start" font-weight="700">E3</text><rect x="760" y="455" width="15" height="18" fill="#d697e8" rx="2"/><rect x="779" y="455" width="15" height="18" fill="#d697e8" rx="2"/><rect x="798" y="455" width="15" height="18" fill="#d697e8" rx="2"/><rect x="817" y="455" width="15" height="18" fill="#d697e8" rx="2"/><rect x="836" y="455" width="15" height="18" fill="#526171" rx="2"/><text x="858" y="471" fill="#d697e8" font-size="15" font-family="Arial, Helvetica, sans-serif" text-anchor="start" font-weight="400">4/5</text><text x="910" y="442" fill="#ffbd70" font-size="16" font-family="Arial, Helvetica, sans-serif" text-anchor="start" font-weight="700">E4</text><rect x="910" y="455" width="15" height="18" fill="#ffbd70" rx="2"/><rect x="929" y="455" width="15" height="18" fill="#ffbd70" rx="2"/><rect x="948" y="455" width="15" height="18" fill="#ffbd70" rx="2"/><rect x="967" y="455" width="15" height="18" fill="#ffbd70" rx="2"/><rect x="986" y="455" width="15" height="18" fill="#ffbd70" rx="2"/><text x="1008" y="471" fill="#ffbd70" font-size="15" font-family="Arial, Helvetica, sans-serif" text-anchor="start" font-weight="400">5/5</text><text x="52" y="567" fill="#e8edf3" font-size="17" font-family="Arial, Helvetica, sans-serif" text-anchor="start" font-weight="400">Return above every random</text><text x="460" y="537" fill="#8fb6ff" font-size="16" font-family="Arial, Helvetica, sans-serif" text-anchor="start" font-weight="700">E1</text><rect x="460" y="550" width="15" height="18" fill="#8fb6ff" rx="2"/><rect x="479" y="550" width="15" height="18" fill="#8fb6ff" rx="2"/><rect x="498" y="550" width="15" height="18" fill="#526171" rx="2"/><rect x="517" y="550" width="15" height="18" fill="#526171" rx="2"/><rect x="536" y="550" width="15" height="18" fill="#526171" rx="2"/><text x="558" y="566" fill="#8fb6ff" font-size="15" font-family="Arial, Helvetica, sans-serif" text-anchor="start" font-weight="400">2/5</text><text x="610" y="537" fill="#65dab0" font-size="16" font-family="Arial, Helvetica, sans-serif" text-anchor="start" font-weight="700">E2</text><rect x="610" y="550" width="15" height="18" fill="#65dab0" rx="2"/><rect x="629" y="550" width="15" height="18" fill="#65dab0" rx="2"/><rect x="648" y="550" width="15" height="18" fill="#65dab0" rx="2"/><rect x="667" y="550" width="15" height="18" fill="#65dab0" rx="2"/><rect x="686" y="550" width="15" height="18" fill="#65dab0" rx="2"/><text x="708" y="566" fill="#65dab0" font-size="15" font-family="Arial, Helvetica, sans-serif" text-anchor="start" font-weight="400">5/5</text><text x="760" y="537" fill="#d697e8" font-size="16" font-family="Arial, Helvetica, sans-serif" text-anchor="start" font-weight="700">E3</text><rect x="760" y="550" width="15" height="18" fill="#d697e8" rx="2"/><rect x="779" y="550" width="15" height="18" fill="#526171" rx="2"/><rect x="798" y="550" width="15" height="18" fill="#526171" rx="2"/><rect x="817" y="550" width="15" height="18" fill="#526171" rx="2"/><rect x="836" y="550" width="15" height="18" fill="#526171" rx="2"/><text x="858" y="566" fill="#d697e8" font-size="15" font-family="Arial, Helvetica, sans-serif" text-anchor="start" font-weight="400">1/5</text><text x="910" y="537" fill="#ffbd70" font-size="16" font-family="Arial, Helvetica, sans-serif" text-anchor="start" font-weight="700">E4</text><rect x="910" y="550" width="15" height="18" fill="#ffbd70" rx="2"/><rect x="929" y="550" width="15" height="18" fill="#ffbd70" rx="2"/><rect x="948" y="550" width="15" height="18" fill="#ffbd70" rx="2"/><rect x="967" y="550" width="15" height="18" fill="#ffbd70" rx="2"/><rect x="986" y="550" width="15" height="18" fill="#ffbd70" rx="2"/><text x="1008" y="566" fill="#ffbd70" font-size="15" font-family="Arial, Helvetica, sans-serif" text-anchor="start" font-weight="400">5/5</text><text x="52" y="655" fill="#b7c3cf" font-size="16" font-family="Arial, Helvetica, sans-serif" text-anchor="start" font-weight="400">Descriptive counts only. They do not show statistical significance or future profitability.</text></svg>
